<?xml version="1.0" encoding="UTF-8" standalone="no"?>
<!DOCTYPE svg PUBLIC "-//W3C//DTD SVG 20010904//EN"
              "http://www.w3.org/TR/2001/REC-SVG-20010904/DTD/svg10.dtd">

<svg xmlns="http://www.w3.org/2000/svg"
     width="1.69in" height="0.713333in"
     viewBox="0 0 507 214">
  <path id="main"
        fill="none" stroke="black" stroke-width="1"
        d="M 296.00,82.00
           C 296.00,82.00 0.00,82.00 0.00,82.00
             0.00,82.00 0.00,132.00 0.00,132.00
             0.00,132.00 296.00,132.00 296.00,132.00
             297.25,145.87 308.33,165.38 317.08,176.00
             356.83,224.22 429.78,226.67 474.99,184.83
             483.94,176.54 490.84,165.84 496.25,155.00
             501.81,143.84 506.85,128.55 507.00,116.00
             507.11,105.98 507.54,95.86 505.55,86.00
             498.35,50.18 474.99,21.22 441.00,7.45
             391.89,-12.44 330.33,6.68 305.76,55.00
             301.67,63.03 296.82,72.96 296.00,82.00 Z
           M 389.00,13.29
           C 418.10,10.57 448.38,19.48 468.91,41.01
             512.12,86.34 500.78,162.64 444.00,191.03
             426.32,199.87 413.29,201.22 394.00,201.00
             362.04,200.62 328.83,177.49 315.32,149.00
             307.11,131.69 305.78,119.76 306.00,101.00
             306.11,91.76 309.00,80.57 312.40,72.00
             325.86,38.09 353.57,18.70 389.00,13.29 Z" />
</svg>
